<?xml version="1.0" encoding="UTF-8"?><svg id="Sponsorlogo" xmlns="http://www.w3.org/2000/svg" viewBox="0 0 976.83 340.19"><defs><style>.cls-1{fill:#ec0000;}</style></defs><g id="Woorddeel"><path class="cls-1" d="M139.78,72.98c0-31.91,22.36-54.43,53.95-54.43,16.04,0,29.48,5.18,39.04,15.55l-13.93,13.28c-5.99-6.64-14.58-10.53-24.79-10.53-19.12,0-32.4,14.9-32.4,36.13s12.96,36.77,31.59,36.77c17.01,0,28.84-9.72,28.84-23.81v-2.75h-25.43v-17.66h46.82v16.36c0,26.89-20.9,45.85-50.87,45.85s-52.81-22.68-52.81-54.76Z"/><path class="cls-1" d="M257.06,85.78c0-24.79,16.69-41.96,40.5-41.96s40.34,17.01,40.34,41.47c0,1.94-.32,5.02-.65,7.13h-59.94c1.46,10.85,10.69,18.14,22.52,18.14,8.75,0,16.36-3.24,21.38-9.07l12.15,11.83c-7.29,9.4-19.93,14.42-34.51,14.42-24.62,0-41.8-17.33-41.8-41.96Zm20.25-8.1h40.34c-1.3-10.53-9.4-17.66-20.25-17.66s-18.95,7.13-20.09,17.66Z"/><path class="cls-1" d="M354.59,45.77h18.79v10.85h.32c4.05-8.26,11.18-12.8,20.41-12.8,10.37,0,18.14,4.54,23,13.61,4.86-8.75,13.77-13.61,25.11-13.61,19.76,0,29.32,11.02,29.32,33.53v48.44h-20.09v-45.04c0-13.12-4.54-19.44-13.93-19.44s-14.42,6.97-14.42,20.09v44.39h-20.09v-45.04c0-13.28-4.37-19.44-13.93-19.44s-14.42,7.13-14.42,20.09v44.39h-20.09V45.77Z"/><path class="cls-1" d="M487.43,85.78c0-24.79,16.69-41.96,40.5-41.96s40.34,17.01,40.34,41.47c0,1.94-.32,5.02-.65,7.13h-59.94c1.46,10.85,10.69,18.14,22.52,18.14,8.75,0,16.36-3.24,21.38-9.07l12.15,11.83c-7.29,9.4-19.93,14.42-34.51,14.42-24.62,0-41.8-17.33-41.8-41.96Zm20.25-8.1h40.34c-1.3-10.53-9.4-17.66-20.25-17.66s-18.95,7.13-20.09,17.66Z"/><path class="cls-1" d="M579.93,85.78c0-24.79,16.69-41.96,40.5-41.96s40.34,17.01,40.34,41.47c0,1.94-.32,5.02-.65,7.13h-59.94c1.46,10.85,10.69,18.14,22.52,18.14,8.75,0,16.36-3.24,21.38-9.07l12.15,11.83c-7.29,9.4-19.93,14.42-34.51,14.42-24.62,0-41.8-17.33-41.8-41.96Zm20.25-8.1h40.34c-1.3-10.53-9.4-17.66-20.25-17.66s-18.95,7.13-20.09,17.66Z"/><path class="cls-1" d="M677.45,45.77h18.95v10.85h.32c3.73-7.94,11.83-12.8,21.22-12.8,20.09,0,30.46,11.5,30.46,33.53v48.44h-20.09v-44.55c0-13.61-4.86-19.93-15.07-19.93s-15.71,7.13-15.71,20.41v44.06h-20.09V45.77Z"/><path class="cls-1" d="M774.16,97.12V62.45h-13.77v-16.69h7.29c6.64,0,9.23-2.59,9.23-9.23v-12.47h17.17v21.71h19.44v16.69h-19.44v34.67c0,7.78,4.05,12.15,11.5,12.15,2.27,0,5.02-.32,6.64-.81v16.85c-2.43,.65-6.97,1.13-10.53,1.13-18.14,0-27.54-10.04-27.54-29.32Z"/><path class="cls-1" d="M823.41,85.78c0-24.79,16.69-41.96,40.5-41.96s40.34,17.01,40.34,41.47c0,1.94-.32,5.02-.65,7.13h-59.94c1.46,10.85,10.69,18.14,22.52,18.14,8.75,0,16.36-3.24,21.38-9.07l12.15,11.83c-7.29,9.4-19.93,14.42-34.51,14.42-24.62,0-41.8-17.33-41.8-41.96Zm20.25-8.1h40.34c-1.3-10.53-9.4-17.66-20.25-17.66s-18.95,7.13-20.09,17.66Z"/><path class="cls-1" d="M177.52,214.89h24.3l42.12,105.3h-22.52l-8.75-23.17h-46.82l-8.75,23.17h-21.71l42.12-105.3Zm-5.35,64.64h34.02l-16.85-44.39h-.32l-16.85,44.39Z"/><path class="cls-1" d="M257.23,240.17h18.79v10.85h.32c4.05-8.26,11.18-12.8,20.41-12.8,10.37,0,18.14,4.54,23,13.61,4.86-8.75,13.77-13.61,25.11-13.61,19.76,0,29.32,11.02,29.32,33.54v48.44h-20.09v-45.04c0-13.12-4.54-19.44-13.93-19.44s-14.42,6.97-14.42,20.09v44.39h-20.09v-45.04c0-13.28-4.37-19.44-13.93-19.44s-14.42,7.13-14.42,20.09v44.39h-20.09v-80.03Z"/><path class="cls-1" d="M411.13,286.66c-10.85-3.24-21.38-9.07-21.38-23.65s12.31-24.79,30.62-24.79c12.31,0,21.87,4.37,27.22,12.47l-11.5,11.5c-4.05-5.02-9.56-7.78-15.55-7.78-6.8,0-11.02,3.08-11.02,7.94,0,6.48,6.8,7.61,16.69,10.69,10.85,3.24,21.38,9.07,21.38,23.65s-12.96,25.43-32.08,25.43c-12.47,0-22.52-4.37-28.35-12.64l11.5-11.5c4.37,5.18,10.21,7.94,16.69,7.94,7.78,0,12.47-3.24,12.47-8.59,0-6.48-6.8-7.61-16.69-10.69Z"/><path class="cls-1" d="M468.8,291.52v-34.67h-13.77v-16.69h7.29c6.64,0,9.23-2.59,9.23-9.23v-12.47h17.17v21.71h19.44v16.69h-19.44v34.67c0,7.78,4.05,12.15,11.5,12.15,2.27,0,5.02-.32,6.64-.81v16.85c-2.43,.65-6.97,1.13-10.53,1.13-18.14,0-27.54-10.04-27.54-29.32Z"/><path class="cls-1" d="M518.04,280.18c0-24.79,16.69-41.96,40.5-41.96s40.34,17.01,40.34,41.47c0,1.94-.32,5.02-.65,7.13h-59.94c1.46,10.85,10.69,18.14,22.52,18.14,8.75,0,16.36-3.24,21.38-9.07l12.15,11.83c-7.29,9.4-19.93,14.42-34.51,14.42-24.62,0-41.8-17.33-41.8-41.96Zm20.25-8.1h40.34c-1.3-10.53-9.4-17.66-20.25-17.66s-18.95,7.13-20.09,17.66Z"/><path class="cls-1" d="M615.57,240.17h18.95v13.28h.32c3.89-9.07,11.02-13.93,20.41-13.93,2.43,0,5.83,.32,7.13,.81v19.12c-2.27-.65-6.64-1.13-9.88-1.13-10.21,0-16.85,7.78-16.85,19.76v42.12h-20.09v-80.03Z"/><path class="cls-1" d="M668.06,280.51c0-24.79,16.36-42.28,39.53-42.28,10.69,0,19.44,4.7,24.95,13.28h.32v-48.76h20.09v117.45h-18.95v-12.47h-.32c-5.18,9.07-14.9,14.42-26.08,14.42-23.17,0-39.53-17.33-39.53-41.63Zm64.8-.32c0-14.42-8.91-23.98-22.03-23.98s-22.19,9.72-22.19,23.98,8.91,23.98,22.19,23.98,22.03-9.56,22.03-23.98Z"/><path class="cls-1" d="M768.33,297.35c0-15.39,12.8-24.62,34.18-24.79l15.55-.16v-2.59c0-9.4-5.99-14.26-16.85-14.26-7.13,0-13.45,2.75-17.82,7.78l-12.15-11.83c6.97-8.59,18.14-13.28,31.91-13.28,21.38,0,34.99,11.66,34.99,30.29v31.75c0,2.92,1.3,4.21,4.54,4.21h1.46v15.71h-9.4c-7.61,0-12.8-3.56-14.42-9.4h-.32c-5.02,7.29-13.28,11.34-23.33,11.34-16.85,0-28.35-10.04-28.35-24.79Zm49.73-6.97v-4.54l-13.28,.16c-10.53,.16-16.2,3.89-16.2,10.85,0,6.16,4.86,10.53,11.66,10.53,10.53,0,17.82-6.97,17.82-17.01Z"/><path class="cls-1" d="M859.86,240.17h18.79v10.85h.32c4.05-8.26,11.18-12.8,20.41-12.8,10.37,0,18.14,4.54,23,13.61,4.86-8.75,13.77-13.61,25.11-13.61,19.76,0,29.32,11.02,29.32,33.54v48.44h-20.09v-45.04c0-13.12-4.54-19.44-13.93-19.44s-14.42,6.97-14.42,20.09v44.39h-20.09v-45.04c0-13.28-4.37-19.44-13.93-19.44s-14.42,7.13-14.42,20.09v44.39h-20.09v-80.03Z"/></g><g id="Andreaskruisen"><polygon class="cls-1" points="0 320.19 30 290.19 0 260.19 20 240.19 50 270.19 80 240.19 100 260.19 70 290.19 100 320.19 80 340.19 50 310.19 20 340.19 0 320.19"/><polygon class="cls-1" points="0 200.2 30 170.2 0 140.2 20 120.2 50 150.2 80 120.2 100 140.2 70 170.2 100 200.2 80 220.2 50 190.2 20 220.2 0 200.2"/><polygon class="cls-1" points="0 80 30 50 0 20 20 0 50 30 80 0 100 20 70 50 100 80 80 100 50 70 20.01 100 0 80"/></g></svg>